<?xml version="1.0" standalone="no"?>
<!DOCTYPE svg PUBLIC "-//W3C//DTD SVG 20010904//EN"
 "http://www.w3.org/TR/2001/REC-SVG-20010904/DTD/svg10.dtd">
<svg version="1.0" xmlns="http://www.w3.org/2000/svg"
 width="1280.000000pt" height="1139.000000pt" viewBox="0 0 1280.000000 1139.000000"
 preserveAspectRatio="xMidYMid meet">
<g transform="translate(0.000000,1139.000000) scale(0.100000,-0.100000)"
fill="#000000" stroke="none">
<path d="M6289 11386 c-2 -2 -71 -9 -154 -16 -695 -53 -1212 -226 -1658 -557
-129 -96 -350 -318 -450 -451 -293 -392 -470 -878 -532 -1457 -17 -163 -20
-595 -5 -760 24 -257 93 -430 252 -632 l65 -82 6 -120 c9 -155 40 -381 78
-554 144 -658 445 -1230 881 -1671 104 -104 117 -121 112 -145 -18 -85 -97
-291 -158 -414 l-71 -142 -1225 -262 c-674 -144 -1268 -276 -1320 -292 -707
-223 -1128 -961 -1211 -2126 -13 -185 -6 -720 11 -865 7 -52 13 -96 14 -97 7
-8 7895 -3 9156 6 877 6 1650 11 1718 11 l123 0 -6 118 c-41 783 -90 1154
-206 1578 -221 806 -640 1303 -1227 1454 -42 11 -482 96 -977 190 -1318 250
-1344 255 -1355 266 -9 9 -120 599 -120 637 0 10 39 60 86 110 431 456 721
1015 858 1657 30 141 62 363 71 490 6 88 10 103 56 195 63 126 83 222 104 495
9 113 20 232 25 265 31 202 35 482 9 720 -79 750 -438 1440 -970 1867 -356
286 -802 476 -1274 542 -186 27 -429 46 -568 46 -74 0 -136 -2 -138 -4z"/>
</g>
</svg>
